<?xml version="1.0" encoding="UTF-8"?>
<!-- Created with Inkscape (http://www.inkscape.org/) -->
<svg id="svg8" width="26.114mm" height="25.576mm" version="1.1" viewBox="0 0 26.114 25.576" xmlns="http://www.w3.org/2000/svg" xmlns:cc="http://creativecommons.org/ns#" xmlns:dc="http://purl.org/dc/elements/1.1/" xmlns:rdf="http://www.w3.org/1999/02/22-rdf-syntax-ns#" xmlns:xlink="http://www.w3.org/1999/xlink">
 <defs id="defs2">
  <linearGradient id="linearGradient827" x1="42.069" x2="55.378" y1="56.229" y2="40.59" gradientUnits="userSpaceOnUse">
   <stop id="stop821" stop-color="#91be90" offset="0"/>
   <stop id="stop834" stop-color="#b7c3c2" offset=".39455"/>
   <stop id="stop823" stop-color="#e8e64e" offset="1"/>
  </linearGradient>
 </defs>
 <metadata id="metadata5">
  <rdf:RDF>
   <cc:Work rdf:about="">
    <dc:format>image/svg+xml</dc:format>
    <dc:type rdf:resource="http://purl.org/dc/dcmitype/StillImage"/>
    <dc:title/>
   </cc:Work>
  </rdf:RDF>
 </metadata>
 <g id="layer1" transform="translate(-35.586 -36.253)">
  <ellipse id="path817" cx="48.643" cy="49.041" rx="12.924" ry="12.655" fill="url(#linearGradient827)" stroke="#fe6934" stroke-linejoin="round" stroke-width=".265" style="paint-order:normal"/>
 </g>
 <g id="layer5">
  <path id="path831" d="m7.4438 15.519c-1.0992-0.50218-3.1367-0.11735-3.1367-0.11735s2.2786 2.0504 4.189 3.4739c1.9104 1.4235 5.4813 1.8145 7.7345 1.0662 2.2532-0.74829 4.2397-3.2618 4.47-5.0319 0.23029-1.7701 0.21956-6.3784 0.21956-6.3784s-1.9327 1.4074-2.4175 2.8648c-0.48474 1.4573 0.2076 2.7457-0.12043 4.0935s-2.151 3.2922-2.151 3.2922-5.0083-0.64605-6.6265-1.4599c-1.6182-0.81388-1.0617-1.3009-2.1609-1.8031z" fill="#00c1fa" stroke="#000" stroke-width=".21657"/>
 </g>
 <g id="layer4">
  <path id="path827" d="m17.275 6.7447c1.5886-0.77602 1.4401-1.675-0.091611-1.2062-2.9005 0.88759-9.8953 4.2719-12.626 6.537-1.0639 0.88259-0.36197 1.0647 0.32847 0.97342 0.69044-0.09129 3.5666-1.8936 3.5666-1.8936s1.3513-0.83602 2.0261-0.27646c0.76882 0.80318 2.7152 5.502 3.9095 7.8147 0.38274 0.73422 0.89406 1.6193 1.5015 1.3385l1.5829-0.73187-0.7011-1.1117s-0.74249 0.98836-1.8198-1.1305c-0.86906-1.7092-2.8553-5.9986-2.9204-6.6155-0.06518-0.61698-0.17016-0.73696 0.49918-1.3233 1.074-0.94081 3.922-1.9727 4.7447-2.3745z" fill="#fe6934" stroke="#000" stroke-width=".21657"/>
 </g>
 <g id="layer2" display="none" stroke="#000">
  <path id="path831-3" d="m11.056 7.6521c0.78594-0.65556 1.6595-1.8281 1.6595-1.8281s-2.7809 0.4494-4.5689 1.389c-1.788 0.93956-3.3905 3.519-3.6389 5.5075-0.24844 1.9885 0.95348 4.414 2.2263 5.2315 1.2728 0.81752 5.3287 2.0555 5.3287 2.0555s-0.89344-1.5581-1.8336-2.4561c-0.9402-0.89797-2.1803-0.83764-3.0938-1.5765-0.91347-0.73885-1.5173-1.5141-1.4317-3.0222 0.08564-1.5082 1.7081-3.3461 2.9222-4.2841 1.2142-0.93797 1.6443-0.36088 2.4302-1.0164z" display="inline" fill="#00c1fa" stroke-width=".18331"/>
  <path id="path827-6" d="m21.53 10.238c1.5812 0.0018 1.8157-0.7632 0.40108-0.98503-2.6787-0.42006-9.628-0.4538-12.712 0.27624-1.2018 0.28446-0.70966 0.69862-0.11923 0.89309 0.59042 0.19446 3.6095-0.11504 3.6095-0.11504s1.4142-0.13694 1.736 0.56391c0.30141 0.92892 0.01562 5.3791 0.06471 7.6607 0.01847 0.7257 0.08084 1.6198 0.67917 1.633l1.5592 0.03439-0.12564-1.1457s-0.98521 0.49173-1.0167-1.592c-0.02539-1.6809 0.06729-5.8241 0.25772-6.335 0.19043-0.5109 0.15333-0.64585 0.9216-0.84929 1.2327-0.32643 3.926-0.04022 4.7449-0.03926z" display="inline" fill="#fe6934" stroke-width=".19177"/>
 </g>
</svg>
