<svg xmlns="http://www.w3.org/2000/svg" width="290" height="105" xmlns:v="https://vecta.io/nano"><defs><clipPath id="A"><path d="M335.77 705.802h225.35v80.37H335.77v-80.37z"/></clipPath><clipPath id="B"><path d="M335.77 705.802h225.35v80.37H335.77v-80.37z"/></clipPath><clipPath id="C"><path d="M335.77 705.802h225.35v80.37H335.77v-80.37z"/></clipPath><clipPath id="D"><path d="M335.77 705.802h225.35v80.37H335.77v-80.37z"/></clipPath></defs><g transform="matrix(1.25 0 0 -1.25 -415.554532 984.98065)"><g clip-path="url(#D)"><path d="M337.78 774.05c.05-1.16.165-3.385 2.532-3.385 2.533 0 2.51 2.18 2.51 3.575v11.645h2.25v-11.527c0-1.562 0-5.704-4.758-5.704-1.396 0-3.904.284-4.473 3.786-.094.64-.07.995-.07 1.326l2.01.284"/></g><path d="M362.684 785.885v-9.8c0-2.247 0-7.43-6.626-7.43-6.414 0-6.698 4.426-6.698 7.43v9.8h2.25V776.1c0-2.06 0-5.445 4.26-5.445 4.166 0 4.568 2.392 4.568 5.445v9.775h2.247m4.565-11.305c.024-.378.12-1.088.45-1.727.948-1.822 3.3-2.18 4.545-2.18 2.344 0 4.213.994 4.213 2.9 0 1.987-1.703 2.414-5.136 3.242-2.2.52-5.538 1.302-5.538 4.686 0 2.627 2.177 4.686 5.94 4.686 3.645 0 6.248-1.75 6.366-5.088l-2.154-.166c-.117 1.23-.615 3.242-4.117 3.242-1.47 0-3.906-.425-3.906-2.53 0-1.47.946-2.013 4.047-2.7s6.65-1.5 6.65-5.206c0-2.816-2.415-5.065-6.272-5.065-4.07 0-5.916 1.563-6.792 3.645-.38.924-.403 1.634-.427 2.083l2.13.2m17.885 9.3h-5.562v2.013h13.42v-2.013h-5.6v-14.934h-2.25v14.934m22.77 2.013v-9.8c0-2.247 0-7.43-6.627-7.43-6.413 0-6.697 4.426-6.697 7.43v9.8h2.248V776.1c0-2.06 0-5.445 4.26-5.445 4.166 0 4.57 2.392 4.57 5.445v9.775h2.248m4.3-11.305c.024-.378.12-1.088.45-1.727.946-1.822 3.3-2.18 4.545-2.18 2.343 0 4.212.994 4.212 2.9 0 1.987-1.704 2.414-5.136 3.242-2.2.52-5.538 1.302-5.538 4.686 0 2.627 2.177 4.686 5.942 4.686 3.643 0 6.247-1.75 6.365-5.088l-2.154-.166c-.118 1.23-.615 3.242-4.116 3.242-1.47 0-3.907-.425-3.907-2.53 0-1.47.947-2.013 4.048-2.7s6.65-1.5 6.65-5.206c0-2.816-2.414-5.065-6.272-5.065-4.07 0-5.916 1.563-6.8 3.645-.38.924-.404 1.634-.428 2.083l2.13.2m14.664-.545h6.366v2.082h-6.366v-2.082zm10.216 11.858h2.248V770.95h8.353v-2.012h-10.6v16.947m12.773-16.947h2.247v16.947h-2.247v-16.947zm6.793 16.947h12.26v-2.013h-10v-5.183h9.372v-2h-9.372v-5.728h10.415v-2.012h-12.663v16.947m17.913-9.113h3.93c1.372 0 4.306 0 4.306-2.912 0-2.934-2.84-2.9-4.022-2.9h-4.215v5.823zm-2.247-7.835h6.484c.97 0 2.178 0 3.645.592 1.6.64 2.675 2.414 2.675 4.33 0 1.325-.57 3.314-3.17 4.094 2.2 1.114 2.343 2.983 2.343 3.6 0 1.253-.592 2.484-1.658 3.312-1.254.97-2.9 1.02-3.95 1.02h-6.367V768.94zm2.247 14.934h3.385c1.87 0 4.142 0 4.142-2.603 0-2.5-2.366-2.485-3.857-2.485h-3.67v5.088m13.702-14.934h2.25v16.947h-2.25v-16.947zm13.598 8.64h7.17v-6.273c-.898-.733-3.336-2.65-7.006-2.65-5.136 0-8.66 3.338-8.66 8.686 0 3.338 1.6 8.83 8.496 8.83 5.657 0 6.603-3.8 6.912-5.018l-2-.568c-.3 1.065-1.04 3.668-4.9 3.668-5.727 0-6.176-5.112-6.176-6.768 0-1.8.355-3.598 1.538-4.924 1.207-1.325 3.03-1.892 4.686-1.892 2.58 0 4.544 1.42 4.947 1.75v3.147h-4.995v2.013m9.44-3.552h6.368v2.082h-6.368v-2.082zm-88.504-16.543v-9.798c0-2.25 0-7.434-6.626-7.434-6.415 0-6.7 4.426-6.7 7.434v9.798h2.25v-9.776c0-2.06 0-5.443 4.26-5.443 4.165 0 4.567 2.4 4.567 5.443v9.776h2.248m4.03 0h2.297l8.85-13.3h.047v13.3h2.13v-16.946h-2.295l-8.853 13.3h-.046v-13.3h-2.13v16.946m18.19-16.946h2.247v16.947h-2.247v-16.947z"/><path d="M449.578 757.484h2.414l4.402-12.307.12-.285.757-2.485h.048c.236.922.567 1.895.875 2.77l4.6 12.307h2.273l-6.628-16.946h-2.295l-6.556 16.946m17.512 0h12.26v-2h-10V750.3h9.372v-2.012h-9.372v-5.728h10.413v-2H467.1v16.946m18.056-1.87h5.35c.875 0 1.608-.096 2.32-.475s1.3-1.23 1.3-2.296c0-1.017-.592-2.035-1.468-2.413-.922-.403-1.68-.403-2.697-.403h-4.804v5.587zm-2.248-15.077h2.248v7.48h2.58c1.87 0 2.65-.166 5.064-3.977l2.226-3.502h2.817l-2.96 4.615c-1.325 2.06-2.342 2.674-3.196 3.076v.048c2.888.38 4.76 1.846 4.76 4.567 0 1.775-.924 3.527-2.65 4.2-1.114.426-2.203.45-3.385.45H482.9V740.55m17.6 5.62c.024-.38.118-1.1.45-1.728.947-1.824 3.3-2.178 4.546-2.178 2.34 0 4.212.994 4.212 2.888 0 1.988-1.705 2.414-5.137 3.243-2.202.52-5.537 1.302-5.537 4.686 0 2.627 2.177 4.686 5.94 4.686 3.644 0 6.25-1.752 6.367-5.1l-2.155-.166c-.118 1.23-.614 3.242-4.118 3.242-1.468 0-3.904-.425-3.904-2.53 0-1.467.946-2.012 4.046-2.698s6.652-1.492 6.652-5.207c0-2.817-2.416-5.067-6.272-5.067-4.07 0-5.92 1.564-6.795 3.646-.377.924-.4 1.634-.424 2.084l2.13.2m14.77-5.633h2.25v16.947h-2.25v-16.947zm9.953 14.935h-5.562v2h13.42v-2h-5.608v-14.935h-2.25v14.935"/><g clip-path="url(#C)"><path d="M539.352 752.468c.4 1.062.686 2.128.9 3.24h.047c.356-1.374.735-2.415 1.16-3.527l1.774-4.7h-5.75l1.87 4.996zm-6.746-11.93h2.367l1.87 5.16h7.076l2-5.16h2.53l-6.9 16.946h-2.415l-6.508-16.946m20.652 14.935h-5.56v2h13.42v-2h-5.6v-14.935h-2.248v14.935"/></g><path d="M416.912 723.93h7.172v-6.272c-.9-.733-3.338-2.65-7.007-2.65-5.134 0-8.662 3.335-8.662 8.685 0 3.338 1.6 8.827 8.497 8.827 5.656 0 6.604-3.8 6.9-5.016l-2.012-.568c-.308 1.064-1.04 3.67-4.9 3.67-5.727 0-6.177-5.113-6.177-6.77 0-1.798.355-3.597 1.54-4.923 1.205-1.325 3.027-1.893 4.685-1.893 2.58 0 4.543 1.42 4.947 1.753v3.146H416.9v2m10.867-8.637h2.247v16.945h-2.247v-16.945zm6.79 16.946h12.257v-2.012h-10.008v-5.182h9.37v-2.013h-9.37v-5.727h10.412v-2.012h-12.66v16.946m16.32-11.313c.02-.38.117-1.1.45-1.728.945-1.822 3.288-2.177 4.543-2.177 2.343 0 4.213.994 4.213 2.888 0 1.987-1.704 2.413-5.135 3.242-2.2.52-5.54 1.3-5.54 4.686 0 2.628 2.177 4.685 5.94 4.685 3.646 0 6.25-1.75 6.365-5.087l-2.15-.165c-.12 1.23-.615 3.24-4.12 3.24-1.467 0-3.906-.425-3.906-2.533 0-1.467.947-2 4.047-2.697s6.65-1.5 6.65-5.206c0-2.817-2.413-5.065-6.272-5.065-4.07 0-5.916 1.56-6.792 3.645-.38.922-.403 1.63-.427 2.08l2.132.2m15.525-.008c.023-.38.117-1.1.45-1.728.946-1.822 3.3-2.177 4.544-2.177 2.343 0 4.214.994 4.214 2.888 0 1.987-1.706 2.413-5.137 3.242-2.2.52-5.537 1.3-5.537 4.686 0 2.628 2.176 4.685 5.94 4.685 3.646 0 6.25-1.75 6.368-5.087l-2.154-.165c-.12 1.23-.616 3.24-4.12 3.24-1.467 0-3.904-.425-3.904-2.533 0-1.467.946-2 4.047-2.697s6.65-1.5 6.65-5.206c0-2.817-2.413-5.065-6.27-5.065-4.072 0-5.918 1.56-6.794 3.645-.38.922-.402 1.63-.426 2.08l2.13.2m13.607 11.304h12.26v-2.012h-10.012v-5.184h9.373v-2.012h-9.373v-5.726h10.416v-2.012H480.02v16.946m15.784 0h2.296l8.853-13.303H507v13.303h2.13V715.3h-2.297l-8.85 13.3h-.05v-13.3h-2.13v16.946"/><path d="M377.767 725.205l.296 3.208c.423 5.575.374 11.52.178 14.34l-.104 1.49-1.494.012c-4.913.04-9.614-.606-12.236-1.048.08 1.098.154 2.54.154 4.153s-.035 2.86-.08 3.786c1.943-.36 4.97-.87 7.926-1.147 4.683-.442 8.51-.388 8.884-.38.397-.008 4.212-.06 8.878.38 2.957.278 5.983.787 7.927 1.147-.044-.925-.08-2.173-.08-3.786s.074-3.055.155-4.153c-2.622.442-7.323 1.09-12.236 1.048l-1.494-.012-.104-1.49c-.196-2.822-.244-8.766.177-14.34.062-.8.22-2.347.297-3.208.3-3.18.88-6.36 1.3-8.4-1.057.093-2.03.158-2.82.19-1.054.042-1.796.023-2.012.015-.218.008-.96.027-2.013-.015a63.22 63.22 0 0 1-2.819-.191c.428 2.038 1.02 5.22 1.31 8.4" fill="#3e69ac"/><path d="M535.614 755.58h1.926v1.926h-1.926v-1.926z"/><g clip-path="url(#B)"><path d="M542.995 755.58h1.926v1.926h-1.926v-1.926z"/><path d="M381.3 705.8s-10.02 3.22-16.453 15.15c-3.413 6.333-5.71 14.32-5.71 22.412v14.156h44.326V743.36c0-8.09-2.295-16.08-5.7-22.412-6.433-11.93-16.452-15.15-16.452-15.15zm-1.034 2.04c-.984.462-2.363 1.2-3.93 2.286-3.153 2.19-7.09 5.81-10.177 11.53-3.307 6.135-5.533 13.882-5.533 21.705v12.666h41.347V743.36c0-7.823-2.226-15.57-5.533-21.705-3.085-5.722-7.024-9.342-10.175-11.53-1.57-1.087-2.946-1.824-3.933-2.286-.43-.203-.78-.35-1.032-.45a18.5 18.5 0 0 0-1.034.45" fill-rule="evenodd"/></g><path d="M381.3 715.398s-.763.033-1.947-.015l-4.953-.412s1.296 5.19 1.768 10.38l.296 3.184c.415 5.488.37 11.33.175 14.108-7.254.06-14.035-1.416-14.035-1.416s.353 2.653.353 6.135c0 4.128-.236 5.78-.236 5.78s5.02-1.077 9.85-1.535 8.73-.373 8.73-.373 3.898-.083 8.728.373 9.85 1.535 9.85 1.535-.237-1.653-.237-5.78c0-3.482.354-6.135.354-6.135s-6.782 1.475-14.036 1.416c-.194-2.778-.24-8.62.176-14.108.06-.795.218-2.33.295-3.184.473-5.19 1.77-10.38 1.77-10.38-1.85.215-3.655.36-4.953.412-1.184.048-1.947.015-1.947.015zm-1.972.606c-1.104-.045-2.57-.155-4.122-.32.386 1.7 1.22 5.654 1.58 9.6l.295 3.194c.42 5.52.372 11.4.178 14.197l-.04.574-.575.004c-5.8.048-11.283-.873-13.33-1.26a55.31 55.31 0 0 1 .264 5.359c0 2.508-.087 4.116-.157 5.003 1.63-.324 5.414-1.028 9.1-1.375 4.705-.444 8.535-.38 8.788-.376.252-.005 4.082-.068 8.787.376 3.675.347 7.46 1.05 9.1 1.375-.07-.887-.157-2.495-.157-5.003a54.91 54.91 0 0 1 .265-5.359c-2.05.388-7.542 1.31-13.33 1.26l-.577-.004-.04-.574c-.194-2.796-.24-8.677.178-14.197.06-.8.216-2.337.295-3.194.36-3.956 1.194-7.91 1.582-9.6-1.552.164-3.02.274-4.123.32a26.39 26.39 0 0 1-1.971.015c-.15.006-.89.03-1.972-.015" fill-rule="evenodd"/><g clip-path="url(#A)"><path d="M336.615 763.387h224.32" fill="none" stroke="#000" stroke-width="1.349" stroke-miterlimit="10"/></g></g></svg>